<?xml version="1.0" encoding="utf-8"?>
<!-- Generator: Adobe Illustrator 15.0.2, SVG Export Plug-In . SVG Version: 6.00 Build 0)  -->
<!DOCTYPE svg PUBLIC "-//W3C//DTD SVG 1.1//EN" "http://www.w3.org/Graphics/SVG/1.1/DTD/svg11.dtd">
<svg version="1.1" id="Layer_1" xmlns="http://www.w3.org/2000/svg" xmlns:xlink="http://www.w3.org/1999/xlink" x="0px" y="0px"
	 width="460.545px" height="500px" viewBox="0 0 460.545 500" enable-background="new 0 0 460.545 500" xml:space="preserve">
<path fill="#0A1420" d="M460.545,113.099c0,13.877-14.461,25.135-32.324,25.135H32.293c-17.868,0-32.34-11.258-32.34-25.135v-88
	C-0.047,11.279,14.425,0,32.293,0h395.928c17.863,0,32.324,11.279,32.324,25.099V113.099z"/>
<path fill="#0A1420" d="M460.545,274.502c0,13.867-14.461,25.146-32.324,25.146H32.293c-17.868,0-32.34-11.279-32.34-25.146v-87.979
	c0-13.867,14.472-25.135,32.34-25.135h395.928c17.863,0,32.324,11.269,32.324,25.135V274.502z"/>
<path fill="#0A1420" d="M460.545,435.916c0,13.856-14.44,25.114-32.324,25.114H32.293c-17.868,0-32.34-11.258-32.34-25.114v-87.969
	c0-13.898,14.472-25.146,32.34-25.146h395.928c17.884,0,32.324,11.248,32.324,25.146V435.916z"/>
<g>
	<path fill="#9D9FA2" d="M45.459,262.922v-58.584h50.374c4.601,0,7.95,0.891,10.051,2.668c2.099,1.78,3.149,4.675,3.149,8.686
		v13.057c0,4.013-1.05,6.908-3.147,8.686c-2.099,1.779-5.448,2.668-10.047,2.668H55.893v22.82H45.459z M91.805,211.945H55.893
		v20.323h35.912c2.506,0,4.265-0.433,5.277-1.299c1.011-0.865,1.517-2.464,1.517-4.798v-8.128c0-2.333-0.527-3.933-1.577-4.799
		C95.97,212.378,94.231,211.945,91.805,211.945z"/>
	<path fill="#9D9FA2" d="M134.752,262.922v-58.584h10.434v58.584H134.752z"/>
	<path fill="#9D9FA2" d="M177.699,262.922v-58.584h6.553l46.838,39.169c2.265,1.893,4.652,4.354,7.16,7.38
		c-0.656-3.634-0.982-8.439-0.982-14.419v-32.13h9.706v58.584h-5.824l-48.165-40.759c-1.78-1.513-2.791-2.384-3.033-2.611
		c-1.294-1.21-2.387-2.535-3.275-3.974c0.485,3.482,0.728,7.759,0.728,12.829v34.515H177.699z"/>
	<path fill="#9D9FA2" d="M303.632,212.286v50.636h-10.434v-50.636h-28.632v-7.948h67.819v7.948H303.632z"/>
	<path fill="#9D9FA2" d="M349.126,218.189c0-5.374,1.031-9.026,3.098-10.956c2.066-1.93,5.935-2.896,11.606-2.896h43.385
		c5.672,0,9.52,0.965,11.545,2.896c2.024,1.93,3.038,5.583,3.038,10.956v30.881c0,5.376-1.014,9.026-3.038,10.956
		c-2.025,1.931-5.873,2.896-11.545,2.896H363.83c-5.672,0-9.54-0.965-11.606-2.896c-2.066-1.93-3.098-5.58-3.098-10.956V218.189z
		 M359.56,254.747h51.805v-42.575H359.56V254.747z"/>
</g>
<g>
	<path fill="#0A1420" d="M2.035,484.768H1.967v14.816H0v-16.986h2.238L14.3,497.445h0.062v-14.848h1.978v16.986h-2.291
		L2.035,484.768z"/>
	<path fill="#0A1420" d="M60.788,499.584v-16.986h13.909v1.377H62.776v6.125h10.752v1.377H62.776v6.74h12.213v1.367H60.788z"/>
	<path fill="#0A1420" d="M141.359,497.319h0.062l4.555-14.722h2.024l-5.478,16.986h-2.181l-4.846-14.994h-0.063l-4.836,14.994
		h-2.181l-5.399-16.986h1.967l4.507,14.722h0.063l4.841-14.722h2.207L141.359,497.319z"/>
	<path fill="#0A1420" d="M258.116,490.799l6.302-8.201h2.306l-7.596,9.589v7.397h-1.982v-7.283l-7.439-9.703h2.264L258.116,490.799z
		"/>
	<path fill="#0A1420" d="M315.054,491.111c0-1.23,0.209-2.399,0.626-3.475c0.417-1.085,1.022-2.045,1.847-2.848
		c0.804-0.814,1.806-1.44,3.016-1.931c1.189-0.459,2.588-0.699,4.152-0.699c1.607,0,3.047,0.24,4.278,0.699s2.254,1.096,3.067,1.909
		c0.824,0.804,1.451,1.764,1.857,2.849c0.418,1.096,0.626,2.265,0.626,3.495c0,1.231-0.208,2.39-0.626,3.464
		c-0.406,1.075-1.022,2.024-1.836,2.839c-0.814,0.793-1.837,1.439-3.047,1.92c-1.211,0.469-2.63,0.709-4.236,0.709
		c-1.617,0-3.025-0.24-4.236-0.709c-1.221-0.48-2.232-1.127-3.047-1.92c-0.813-0.814-1.419-1.764-1.836-2.839
		C315.263,493.501,315.054,492.343,315.054,491.111z M324.799,498.666c1.356,0,2.525-0.22,3.506-0.626
		c0.971-0.418,1.774-0.971,2.4-1.659s1.095-1.492,1.397-2.4c0.293-0.918,0.449-1.878,0.449-2.869c0-1.158-0.178-2.232-0.532-3.172
		c-0.354-0.929-0.876-1.722-1.555-2.379c-0.679-0.668-1.492-1.168-2.473-1.513c-0.96-0.354-2.045-0.521-3.235-0.521
		c-1.335,0-2.504,0.219-3.474,0.636c-0.981,0.428-1.784,0.992-2.411,1.69c-0.636,0.699-1.084,1.503-1.397,2.421
		c-0.292,0.897-0.438,1.857-0.438,2.838c0,1.013,0.146,1.973,0.438,2.88c0.313,0.929,0.762,1.722,1.397,2.41
		c0.627,0.688,1.43,1.252,2.411,1.659C322.253,498.468,323.433,498.666,324.799,498.666z"/>
	<path fill="#0A1420" d="M386.829,491.873v7.711l-1.972-0.021v-16.965h8.18c2.296,0,4.06,0.354,5.29,1.054
		c1.221,0.699,1.826,1.847,1.826,3.422c0,1.054-0.271,1.909-0.814,2.536c-0.521,0.637-1.387,1.168-2.587,1.606
		c0.626,0.178,1.106,0.417,1.439,0.751c0.354,0.334,0.605,0.71,0.793,1.138c0.178,0.428,0.292,0.876,0.334,1.346
		s0.084,0.929,0.104,1.356c0.021,0.647,0.053,1.189,0.104,1.617c0.042,0.418,0.104,0.762,0.167,1.022
		c0.083,0.282,0.146,0.491,0.25,0.626c0.094,0.167,0.209,0.271,0.334,0.345v0.146l-2.17,0.021c-0.209-0.282-0.355-0.679-0.449-1.169
		c-0.072-0.511-0.156-1.032-0.197-1.586c-0.042-0.553-0.084-1.085-0.115-1.606c-0.031-0.532-0.084-0.949-0.156-1.273
		c-0.125-0.448-0.303-0.813-0.574-1.096c-0.261-0.281-0.574-0.479-0.949-0.626c-0.355-0.136-0.772-0.239-1.211-0.281
		c-0.459-0.052-0.938-0.073-1.419-0.073H386.829z M392.975,490.506c0.73,0,1.43-0.062,2.045-0.188
		c0.626-0.125,1.179-0.323,1.649-0.595c0.459-0.271,0.813-0.636,1.105-1.054c0.271-0.417,0.396-0.939,0.396-1.533
		c0-0.627-0.146-1.148-0.418-1.555c-0.271-0.418-0.656-0.73-1.137-0.971c-0.48-0.229-1.012-0.407-1.617-0.49
		c-0.605-0.094-1.252-0.146-1.909-0.146h-6.261v6.531H392.975z"/>
	<path fill="#0A1420" d="M444.144,499.584v-16.986h1.961v8.806l10.727-8.806h2.232l-8.242,6.781l9.682,10.205h-2.399l-8.723-9.213
		l-3.276,2.66v6.553H444.144z"/>
</g>
</svg>
