<?xml version="1.0" encoding="utf-8"?>
<!-- Generator: Adobe Illustrator 15.0.2, SVG Export Plug-In . SVG Version: 6.00 Build 0)  -->
<!DOCTYPE svg PUBLIC "-//W3C//DTD SVG 1.1//EN" "http://www.w3.org/Graphics/SVG/1.1/DTD/svg11.dtd">
<svg version="1.1" id="Layer_1" xmlns="http://www.w3.org/2000/svg" xmlns:xlink="http://www.w3.org/1999/xlink" x="0px" y="0px"
	 width="500px" height="500px" viewBox="0 0 500 500" enable-background="new 0 0 500 500" xml:space="preserve">
<rect x="38.562" y="38.562" fill="#FFFFFF" width="422.875" height="422.875"/>
<g>
	<path fill="#9D9FA2" d="M308.847,220.079c0,3.337-3.481,6.052-7.767,6.052h-95.336c-4.305,0-7.791-2.714-7.791-6.052v-21.19
		c0-3.323,3.486-6.04,7.791-6.04h95.336c4.285,0,7.767,2.717,7.767,6.04V220.079z"/>
	<path fill="#9D9FA2" d="M308.847,258.938c0,3.342-3.481,6.059-7.767,6.059h-95.336c-4.305,0-7.791-2.717-7.791-6.059v-21.184
		c0-3.337,3.486-6.054,7.791-6.054h95.336c4.285,0,7.767,2.717,7.767,6.054V258.938z"/>
	<path fill="#9D9FA2" d="M308.847,297.8c0,3.33-3.481,6.052-7.767,6.052h-95.336c-4.305,0-7.791-2.722-7.791-6.052v-21.19
		c0-3.33,3.486-6.04,7.791-6.04h95.336c4.285,0,7.767,2.71,7.767,6.04V297.8z"/>
</g>
</svg>
