<?xml version="1.0" encoding="utf-8"?>
<!-- Generator: Adobe Illustrator 15.0.2, SVG Export Plug-In . SVG Version: 6.00 Build 0)  -->
<!DOCTYPE svg PUBLIC "-//W3C//DTD SVG 1.1//EN" "http://www.w3.org/Graphics/SVG/1.1/DTD/svg11.dtd">
<svg version="1.1" id="Layer_1" xmlns="http://www.w3.org/2000/svg" xmlns:xlink="http://www.w3.org/1999/xlink" x="0px" y="0px"
	 width="48px" height="48px" viewBox="0 0 48 48" enable-background="new 0 0 48 48" xml:space="preserve">
<g>
	<path fill-rule="evenodd" clip-rule="evenodd" fill="#B1312B" d="M10.482,3.821c1.077-2.478,7.052-3.599,10.228-4.066
		c0.41,0,0.821,0,1.231,0c1.842-0.036,1.568,2.663,1.725,4.684c0.328,4.22,0.659,9.659,0.861,13.55c0,0.617,0,1.233,0,1.848
		c-0.016,0.56-0.258,0.892-0.369,1.358c-2.202,2.127-3.884-1.316-4.93-2.958c-2.056-3.236-4.07-6.35-5.913-9.241
		C12.238,7.301,10.935,5.576,10.482,3.821z"/>
	<path fill-rule="evenodd" clip-rule="evenodd" fill="#B1312B" d="M27.734,23.533c0.838-1.96,2.102-3.269,3.694-5.42
		c0.982-1.329,2.703-4.545,4.066-4.682c1.933-0.196,3.126,2.213,4.067,3.574c0.974,1.417,2.888,3.924,1.723,5.789
		c-1.391,0.729-3.571,1.052-5.79,1.602C32.371,25.171,28.111,27.235,27.734,23.533z"/>
	<path fill-rule="evenodd" clip-rule="evenodd" fill="#B1312B" d="M7.032,23.533c0.308-0.748,0.563-2.147,1.602-2.338
		c0.931-0.176,2.278,0.679,3.328,1.107c1.054,0.431,2.079,0.818,3.079,1.231c2.537,1.051,6.794,1.712,5.174,5.053
		c-1.281,0.777-3.485,1.319-5.79,2.093c-1.912,0.642-5.026,1.921-6.161,1.604c-1.679-0.47-1.354-2.83-1.601-5.052
		c0.282-0.211,0.045-0.939,0.124-1.357C6.786,25.013,7.011,24.374,7.032,23.533z"/>
	<path fill-rule="evenodd" clip-rule="evenodd" fill="#9C817F" d="M6.787,25.873c-0.078,0.418,0.158,1.146-0.124,1.357
		C6.741,26.815,6.503,26.086,6.787,25.873z"/>
	<path fill-rule="evenodd" clip-rule="evenodd" fill="#B1312B" d="M28.227,32.037c0.237-4.161,5.697-1.187,8.127-0.373
		c1.869,0.628,5.417,1.183,5.672,2.712c0.175,1.07-0.67,1.799-0.74,2.466c-0.809,1.118-1.601,2.259-2.466,3.327
		c-0.588,0.481-1.121,1.015-1.605,1.598c-2.757,2.385-4.165-1.664-5.662-4.063C30.06,35.312,29.054,33.903,28.227,32.037z"/>
	<path fill-rule="evenodd" clip-rule="evenodd" fill="#B1312B" d="M13.686,42.016c0.394-2.107,2.447-3.82,3.819-5.42
		c0.66-0.771,1.396-1.653,2.095-2.467c0.701-0.816,1.445-2.059,2.217-2.217c1.334-0.272,2.557,0.562,2.71,1.848
		c-0.286,2.667-0.04,5.874-0.123,8.75c0,0.618,0,1.23,0,1.846c-0.019,0.638-0.328,0.985-0.617,1.354
		C21.235,46.672,14.481,44.015,13.686,42.016z"/>
	<path fill-rule="evenodd" clip-rule="evenodd" fill="#E2E0DF" d="M10.482,3.821c0.453,1.755,1.756,3.48,2.834,5.175
		c1.842,2.891,3.857,6.005,5.913,9.241c1.046,1.642,2.729,5.085,4.93,2.958c-0.447,0.811-0.551,2.524-2.463,2.216
		c-1.397-0.225-2.665-2.706-3.452-3.943c-1.845-2.91-3.813-6.058-5.667-8.995C11.802,9.25,9.97,7.011,9.866,5.916
		C9.777,4.968,10.583,4.149,10.482,3.821z"/>
	<path fill-rule="evenodd" clip-rule="evenodd" fill="#E2E0DF" d="M27.734,23.533c0.377,3.702,4.637,1.638,7.761,0.862
		c2.219-0.55,4.399-0.873,5.79-1.602c-0.168,2.508-3.548,2.49-6.533,3.205c-2.801,0.67-7.187,2.773-7.638-0.372
		C27.012,24.899,27.368,24.2,27.734,23.533z"/>
	<path fill-rule="evenodd" clip-rule="evenodd" fill="#E2E0DF" d="M6.663,27.23c0.247,2.222-0.078,4.582,1.601,5.052
		c1.134,0.317,4.249-0.962,6.161-1.604c2.305-0.773,4.509-1.315,5.79-2.093c-0.26,2.523-4.188,2.907-6.529,3.696
		c-1.813,0.607-4.265,1.904-5.792,1.725c-1.478-0.176-1.76-2.358-1.849-3.573c-0.163-2.267,0.173-5.546,0.987-6.9
		c-0.021,0.84-0.246,1.479-0.246,2.34C6.503,26.086,6.741,26.815,6.663,27.23z"/>
	<path fill-rule="evenodd" clip-rule="evenodd" fill="#E2E0DF" d="M38.819,40.169c0.865-1.068,1.657-2.209,2.466-3.327
		c-0.535,1.546-1.372,2.849-2.466,4.19c-0.763,0.937-2.874,3.782-4.683,3.078c-0.602-0.237-1.248-1.721-1.724-2.464
		c-1.085-1.706-2.104-3.376-3.203-5.175c-0.637-1.042-2.624-3.239-0.983-4.435c0.827,1.866,1.833,3.275,3.325,5.666
		c1.497,2.399,2.905,6.448,5.662,4.063C37.803,41.288,38.336,40.75,38.819,40.169z"/>
	<path fill-rule="evenodd" clip-rule="evenodd" fill="#9C817F" d="M37.214,41.767c0.484-0.583,1.018-1.116,1.605-1.598
		C38.336,40.75,37.803,41.288,37.214,41.767z"/>
	<path fill-rule="evenodd" clip-rule="evenodd" fill="#E2E0DF" d="M13.686,42.016c0.795,1.999,7.549,4.656,10.102,3.694
		c0.195,0.77-0.582,1.867-1.601,1.972c-2.653,0.268-8.858-2.431-9.118-4.065C12.941,42.812,13.175,42.45,13.686,42.016z"/>
</g>
</svg>
